<?xml version="1.0" encoding="UTF-8"?><svg id="f" xmlns="http://www.w3.org/2000/svg" width="48" height="32" viewBox="0 0 48 32"><defs><style>.p{fill:#0071ce;}</style></defs><polygon class="p" points="42.704 19.356 40.333 16.705 37.405 16.705 41.309 20.819 37.405 24.863 40.263 24.863 42.704 22.214 45.074 24.863 48.003 24.863 44.168 20.749 48.003 16.705 45.145 16.705 42.704 19.356"/><polygon class="p" points="32.734 22.981 32.734 21.726 37.336 21.726 37.336 19.843 32.734 19.843 32.734 18.588 37.405 18.588 37.405 16.705 30.503 16.705 30.503 24.863 37.405 24.863 37.405 22.981 32.734 22.981"/><path class="p" d="M47.933,15.52V7.293l-3.346.07-1.812,5.09-1.883-5.09h-3.486v8.001l-3.556-8.001h-2.858l-3.626,8.158h2.441l.697-1.604h3.765l.697,1.604h4.671v-5.717l2.092,5.717h1.953l2.161-5.717v5.717h2.092ZM31.269,12.035l1.115-2.649,1.115,2.649s-2.231,0-2.231,0Z"/><polygon class="p" points="48.003 22.772 48.003 18.31 45.981 20.541 48.003 22.772"/><polygon class="p" points=".002 -.002 .002 31.998 48 31.998 48.003 28.838 48.003 27.22 48.003 25.979 44.586 25.979 42.773 23.957 40.891 25.979 37.195 25.979 29.247 25.979 29.247 16.566 25.552 16.566 30.154 6.038 34.616 6.038 36.22 9.664 36.22 6.038 41.797 6.038 42.773 8.757 43.75 6.038 48.003 6.038 48.003 3.802 48.003 2.692 48 -.002 .002 -.002"/></svg>