<?xml version="1.0" encoding="UTF-8"?>
<svg id="Layer_1" xmlns="http://www.w3.org/2000/svg" width="1024" height="1024" version="1.1" viewBox="0 0 1024 1024">
  <!-- Generator: Adobe Illustrator 29.5.1, SVG Export Plug-In . SVG Version: 2.1.0 Build 141)  -->
  <defs>
    <style>
      .st0 {
        fill: #1a253c;
      }

      .st1 {
        fill: #fff;
      }
    </style>
  </defs>
  <rect class="st0" width="1024" height="1024"/>
  <path class="st1" d="M234.764,513.98c0-135.653,108.156-240.667,277.854-240.667,97.419,0,175.983,26.974,234.382,72.802l-57.875,72.802c-52.9-35.877-109.465-52.9-175.459-52.9-105.014,0-169.698,57.09-169.698,147.7,0,82.23,65.994,141.938,167.864,141.938,65.994,0,121.25-23.307,177.292-64.684l57.875,72.279c-64.16,57.875-147.7,87.468-234.382,87.468-162.889,0-277.854-89.825-277.854-237.001v.262ZM371.727,129.803h281.52l62.851,106.847-13.88,6.809c-61.018-35.092-125.702-45.829-189.862-45.829s-128.845,10.737-189.862,45.829l-13.88-6.809,62.851-106.847h.262ZM512.618,826.402c64.16,0,128.844-10.737,189.862-45.829l13.88,6.809-62.851,106.847h-281.52l-62.851-106.847,13.88-6.809c61.018,35.092,125.702,45.829,189.862,45.829h-.262Z"/>
</svg>