<?xml version="1.0" encoding="UTF-8"?>
<svg id="Illustration" xmlns="http://www.w3.org/2000/svg" width="80" height="80" version="1.1" viewBox="0 0 80 80">
  <!-- Generator: Adobe Illustrator 29.1.0, SVG Export Plug-In . SVG Version: 2.1.0 Build 142)  -->
  <defs>
    <style>
      .st0 {
        fill: #336ecc;
      }

      .st1 {
        fill: #374e80;
      }
    </style>
  </defs>
  <g>
    <path class="st1" d="M69,6.25H11c-2.62,0-4.75,2.13-4.75,4.75v4h1.5v-4c0-1.79,1.46-3.25,3.25-3.25h58c1.79,0,3.25,1.46,3.25,3.25v52c0,1.79-1.46,3.25-3.25,3.25H11c-1.79,0-3.25-1.46-3.25-3.25V25h-1.5v38c0,2.36,1.74,4.31,4,4.67v3.33c0,1.52,1.23,2.75,2.75,2.75h10c1.52,0,2.75-1.23,2.75-2.75v-3.25h30.5v3.25c0,1.52,1.23,2.75,2.75,2.75h8c1.52,0,2.75-1.23,2.75-2.75v-3.33c2.26-.36,4-2.31,4-4.67V11c0-2.62-2.13-4.75-4.75-4.75ZM23,72.25h-10c-.69,0-1.25-.56-1.25-1.25v-.6h12.5v.6c0,.69-.56,1.25-1.25,1.25ZM24.25,69.6h-12.5v-1.85h12.5v1.85ZM68.25,67.75v1.85h-10.5v-1.85h10.5ZM67,72.25h-8c-.69,0-1.25-.56-1.25-1.25v-.6h10.5v.6c0,.69-.56,1.25-1.25,1.25Z"/>
    <path class="st1" d="M40.92,64.39h4.08c.22,0,.4-.18.4-.4V10c0-.22-.18-.4-.4-.4h-4.08l-25.25,5c-.19.04-.32.2-.32.39v44c0,.19.13.36.32.39l25.25,5v.01ZM44.6,63.6h-3.2V10.4h3.2v53.2ZM16.15,15.33l24.45-4.84v53.03l-24.45-4.84s0-43.35,0-43.35Z"/>
    <path class="st1" d="M28,32.6c-1.91,0-3.4,2.37-3.4,5.4s1.49,5.4,3.4,5.4,3.4-2.37,3.4-5.4-1.49-5.4-3.4-5.4ZM28,42.6c-1.41,0-2.6-2.11-2.6-4.6s1.19-4.6,2.6-4.6,2.6,2.11,2.6,4.6-1.19,4.6-2.6,4.6Z"/>
    <rect class="st1" x="35.6" y="29" width=".8" height="20"/>
    <rect class="st1" x="28" y="37.6" width="1.5" height=".8"/>
    <path class="st1" d="M48,58.6v.8h16c.22,0,.4-.18.4-.4V15c0-.22-.18-.4-.4-.4h-16v.8h15.6v43.2s-15.6,0-15.6,0Z"/>
  </g>
  <g>
    <path class="st0" d="M55.6,18.49v14.51h.8v-14.51c0-.77-.63-1.4-1.4-1.4h-8v.8h8c.33,0,.6.27.6.6Z"/>
    <path class="st0" d="M51.54,24.6v6.29c-1.21.13-2.3.84-2.9,1.92l.7.39c.52-.94,1.52-1.53,2.6-1.53.22,0,.4-.18.4-.4v-7.04c0-.22-.18-.4-.4-.4-1.64,0-2.97-1.33-2.97-2.97,0-.22-.18-.4-.4-.4h-1.57v.8h1.19c.19,1.76,1.59,3.16,3.35,3.35v-.01Z"/>
    <path class="st0" d="M60.51,35.6h-13.51v.8h13.51c.33,0,.6.27.6.6v18.51c0,.33-.27.6-.6.6h-13.51v.8h13.51c.77,0,1.4-.63,1.4-1.4v-18.51c0-.77-.63-1.4-1.4-1.4Z"/>
    <path class="st0" d="M46.86,49.07l.29.75c1.44-.56,2.42-1.97,2.42-3.52s-.97-2.96-2.42-3.52l-.29.75c1.14.44,1.9,1.55,1.9,2.77s-.76,2.33-1.9,2.77Z"/>
    <path class="st0" d="M57.05,43.11v6.29c-1.76.19-3.16,1.59-3.35,3.35h-6.7v.8h7.08c.22,0,.4-.18.4-.4,0-1.64,1.33-2.97,2.97-2.97.22,0,.4-.18.4-.4v-7.04c0-.22-.18-.4-.4-.4-1.64,0-2.97-1.33-2.97-2.97,0-.22-.18-.4-.4-.4h-7.08v.8h6.7c.19,1.76,1.59,3.16,3.35,3.35v-.01Z"/>
  </g>
</svg>