<?xml version="1.0" encoding="UTF-8"?><svg id="l" xmlns="http://www.w3.org/2000/svg" width="48" height="32" viewBox="0 0 48 32"><defs><style>.p{fill:#f79e1b;}.q{fill:#eb001b;}.r{fill:#ff5f00;}</style></defs><rect class="r" x="19.19" y="8.137" width="9.626" height="15.722"/><path class="q" d="M20.181,16c-.002-3.067,1.406-5.966,3.818-7.86-4.342-3.412-10.627-2.658-14.039,1.683-3.412,4.342-2.658,10.627,1.683,14.039,3.626,2.85,8.731,2.85,12.355,0-2.414-1.894-3.822-4.794-3.818-7.862h.001Z"/><path class="p" d="M39.222,22.196v-.323h.139v-.067h-.33v.067h.13v.323h.061ZM39.863,22.196v-.389h-.1l-.116.278-.116-.278h-.1v.389h.072v-.294l.108.253h.075l.108-.253v.294h.071Z"/><path class="p" d="M40.177,16c0,5.521-4.476,9.998-9.999,9.998-2.241,0-4.417-.753-6.179-2.139,4.342-3.412,5.095-9.697,1.683-14.039-.492-.626-1.057-1.191-1.683-1.683,4.341-3.412,10.626-2.66,14.039,1.681,1.386,1.762,2.138,3.938,2.139,6.179v.003Z"/></svg>