<?xml version="1.0" encoding="UTF-8"?>
<svg id="Illustration" xmlns="http://www.w3.org/2000/svg" width="80" height="80" version="1.1" viewBox="0 0 80 80">
  <!-- Generator: Adobe Illustrator 29.1.0, SVG Export Plug-In . SVG Version: 2.1.0 Build 142)  -->
  <defs>
    <style>
      .st0 {
        stroke-width: .8px;
      }

      .st0, .st1 {
        fill: none;
        stroke: #336ecc;
        stroke-miterlimit: 10;
      }

      .st1 {
        stroke-width: 1.5px;
      }

      .st2 {
        fill: #374e80;
      }
    </style>
  </defs>
  <path class="st2" d="M64.224,27.77l-6.105-12.211c-.373-.746-1.283-1.309-2.118-1.309H24c-.835,0-1.746.563-2.118,1.309l-1.053,2.106,1.342.671,1.053-2.106c.119-.237.51-.479.776-.479h12.135l-1.836,12.85h-17.245c.021-.053.042-.114.064-.159l2.053-4.106-1.342-.671-2.053,4.106c-.3.601-.526,1.559-.526,2.229v32c0,.965.785,1.75,1.75,1.75h22v-1.5h-22c-.136,0-.25-.114-.25-.25V30c0-.166.031-.38.074-.6h17.426v7.6c0,.414.336.75.75.75h10c.414,0,.75-.336.75-.75v-7.6h17.426c.043.22.074.434.074.599v10h1.5v-10c0-.671-.227-1.629-.526-2.229ZM37.65,15.75h4.699l1.836,12.85h-8.37l1.836-12.85h0ZM44.25,36.25h-8.5v-6.85h8.5v6.85ZM45.7,28.6l-1.836-12.85h12.136c.266,0,.657.242.776.479l6.105,12.211c.022.044.043.107.064.16h-17.246.001Z"/>
  <circle class="st1" cx="57" cy="58" r="15.5"/>
  <g>
    <polyline class="st0" points="54.874 53.167 57 50.122 53.955 47.996"/>
    <path class="st0" d="M57,50.122c-4.351,0-7.878,3.527-7.878,7.878"/>
    <polyline class="st0" points="59.126 62.833 57 65.878 60.045 68.004"/>
    <path class="st0" d="M57,65.878c4.351,0,7.878-3.527,7.878-7.878"/>
  </g>
</svg>