<?xml version="1.0" encoding="UTF-8"?>
<svg id="Illustration" xmlns="http://www.w3.org/2000/svg" width="80" height="80" version="1.1" viewBox="0 0 80 80">
  <!-- Generator: Adobe Illustrator 29.4.0, SVG Export Plug-In . SVG Version: 2.1.0 Build 152)  -->
  <defs>
    <style>
      .st0 {
        fill: #336ecc;
      }

      .st1 {
        fill: #374e80;
      }
    </style>
  </defs>
  <g>
    <path class="st0" d="M40.75,67.42c-3.75-1.73-5.43-4.33-5.43-6.14h-.8c0,2.37,2.16,4.99,5.42,6.64l-1.41,1.61c-1.09-.47-5.44-2.66-6.28-7.69l-.79.13c1.04,6.21,6.8,8.33,7.05,8.42.04.02.09.02.13.02.11,0,.22-.05.3-.14l1.95-2.21c.08-.09.12-.22.09-.35-.03-.12-.11-.23-.22-.28l-.01-.01Z"/>
    <path class="st0" d="M50.49,62.73c-1.17,4.41-5.24,6.36-6.28,6.79l-1.42-1.61c3.38-1.7,5.62-4.32,5.62-6.64h-.8c0,2.09-2.32,4.61-5.63,6.14-.11.05-.2.16-.22.28-.03.12,0,.25.09.35l1.95,2.21c.08.09.19.14.3.14.04,0,.09,0,.13-.02.23-.08,5.59-1.97,7.04-7.44l-.77-.21-.01.01Z"/>
  </g>
  <g>
    <path class="st1" d="M66.66,47.66l-.04-1.37c1.63-.09,2.84-.53,3.63-1.39,1.35-1.46,1.18-3.69,1.03-5.66-.04-.52-.07-1.01-.08-1.48.31-.61.44-1.21.42-1.73-.03-.7-.31-1.29-.78-1.66l.35-7.22c0-4.94-4.78-7.8-9.21-8.37-.63-.09-1.85-.15-2.88-.08-4.72.36-8.22,3.04-9.36,7.16l1.45.4c1.38-5.03,6.07-5.92,8.02-6.06.89-.06,2.01-.01,2.58.07,3.81.49,7.92,2.85,7.92,6.85l-.36,7.47c-.17,0-.35.04-.52.11-.12.05-.23.12-.34.2v-.06c0-1.78-1.44-3.31-3.36-3.55-4.18-.54-6.35-.89-9.95-3.04-.51-.3-1.03-.45-1.51-.42-.24.02-.47.08-.68.18l.35.72c.11-.06.24-.09.38-.1.32-.02.68.08,1.05.31,3.74,2.24,5.97,2.6,10.26,3.15,1.52.19,2.66,1.38,2.66,2.76v2.8c0,4.07-4.25,8.05-7.42,8.05-1,0-2.11-.36-3.2-1.03l-.42.68c1.22.75,2.48,1.15,3.62,1.15,1.56,0,3.32-.81,4.81-2.11l.12,3.96h0v.47c0,.33-.11.8-.48,1.25-.82,1.02-2.59,1.55-5.14,1.55v.8c2.85,0,4.79-.63,5.77-1.87.42-.53.58-1.07.63-1.5,3.79.98,6.3,2.2,7.44,3.64l1.18-.93c-1.33-1.69-3.93-3.03-7.93-4.09l-.01-.01ZM69.15,43.88c-.51.55-1.37.84-2.58.91l-.03-.91c.09-.1.17-.2.26-.3.7-.81,1.43-1.65,1.98-3.45.39-.21.72-.45,1.01-.69.13,1.72.25,3.47-.64,4.44ZM68.48,36.21c.1-.36.36-.67.64-.79.19-.08.38-.08.56.02h0l.18.08c.14.06.24.28.25.56.03.68-.43,1.7-1.73,2.54.05-.33.08-.66.08-.99v-1.42s.02,0,.02,0Z"/>
    <path class="st1" d="M27.82,31.08l.25-.76c-.22-.08-.46-.13-.7-.16h0c-4.21-.59-8.76-2.24-11.09-3.16-.88-.35-1.87-.24-2.65.29-.78.52-1.23,1.36-1.24,2.28h.8c0-.65.33-1.25.89-1.62.57-.38,1.28-.46,1.91-.21,2.37.94,6.98,2.6,11.28,3.21l.06-.4-.06.4c.19.03.38.07.56.13h-.01Z"/>
    <path class="st1" d="M15.74,45.97c1.59,1.31,3.62,2.09,5.83,2.09,1.25,0,2.45-.25,3.59-.73l-.31-.74c-1.04.44-2.14.66-3.28.66-2.49,0-4.72-1.1-6.26-2.83-1.07-1.3-1.91-3.18-2.08-4.79v-.02c-.03-.24-.04-.49-.04-.74v-6.6h-.8v.82c-.31-.24-.65-.35-1.03-.34v-3.53c0-8.14,6.95-9.29,9.09-9.45.85-.08,1.54-.02,2.67.07h.1c3.78.48,7.87,2.62,8.48,6.32l1.48-.24c-.74-4.47-5.44-7.02-9.81-7.57h-.13c-1.17-.1-1.94-.16-2.91-.08-5.06.38-10.47,3.45-10.47,10.94v3.38c-.55.46-.91,1.14-.99,1.91-.13,1.14.28,3,2.9,5.45.22,1.86,1.2,4.04,2.5,5.55l-.08,2.02c-4.08.97-7.27,2.77-8.79,4.98l1.23.85c1.35-1.96,4.33-3.56,8.18-4.43.7,1.59,2.73,5.52,6.1,6.43l.21-.77c-2.91-.8-4.8-4.29-5.51-5.84h.03l.11-2.8-.01.03ZM10.36,34.69c.07-.65.46-.94.63-1.04l.03-.02c.73-.22,1.09.21,1.37.72v4.13c-1.88-1.9-2.1-3.18-2.03-3.79Z"/>
    <path class="st1" d="M56.29,64.15c1.18-1.61,1.71-4.51,1.11-6.81-.24-.93-.71-1.82-1.2-2.76-.8-1.53-1.7-3.26-1.77-5.55.42-.77.59-1.53.57-2.14-.03-.86-.41-1.57-1.01-1.93l.43-8.77c0-5.9-5.73-9.32-11.05-10.01-.75-.11-2.22-.18-3.47-.09-5.67.43-11.73,3.96-11.72,12.61l.44,5.74c-.55.36-1.1,1.17-1.19,2.22-.07.72.06,1.63.72,2.63-.13,2.16-1.14,3.73-2.13,5.26-.61.94-1.19,1.82-1.49,2.77-.76,2.41-.19,5.3,1.22,6.9-.97.73-1.78,1.53-2.37,2.39l1.23.85c1.7-2.46,5.3-4.38,10.16-5.42l.57-.12.21-4.71c1.78,1.47,3.87,2.39,5.75,2.39s4.16-1.07,6-2.73l.17,5.55.55.14c4.8,1.21,7.96,2.74,9.39,4.56l1.18-.93c-.57-.72-1.34-1.38-2.3-2v-.04ZM33.9,60.67c-2.7.63-5.01,1.54-6.87,2.67-1.15-1.12-1.66-3.66-1.05-5.59.24-.76.76-1.56,1.31-2.4.81-1.25,1.77-2.73,2.19-4.62.43.37.94.74,1.55,1.11.99,2.51,2.12,3.82,3.06,4.86l-.18,3.98-.01-.01ZM35.56,56.09l-.26-.28c-.82-.9-1.73-1.91-2.57-3.77-.4-1-.65-2.06-.65-3.13v-7.27h-.8v7.27c0,.47.05.94.13,1.4-1.62-1.07-2.51-2.24-2.5-3.35,0-.72.37-1.16.48-1.25v.02c.36-.14.83-.12,1.02.05l.53-.6c-.22-.19-.51-.29-.81-.32v-.02l-.46-6.21c0-9.53,7.91-10.87,10.33-11.06,1.09-.07,2.46-.01,3.16.08,4.7.6,9.75,3.53,9.75,8.48l-.45,9.19c-.22.05-.46.15-.7.36l.53.6c.29-.26.53-.24.85-.09.2.09.34.36.35.73.04.98-.72,2.36-2.45,3.41.08-.47.14-.95.14-1.43v-3.41c0-2.12-1.72-3.94-4-4.23-5.09-.65-7.73-1.08-12.11-3.71-.96-.57-1.94-.66-2.68-.23-.64.36-1.03,1.07-1.03,1.89h.8c0-.53.23-.97.62-1.19.49-.28,1.18-.2,1.88.22,4.52,2.71,7.22,3.15,12.42,3.81,1.88.24,3.3,1.72,3.3,3.44v3.41c0,1.49-.47,2.98-1.24,4.32-.37.59-.86,1.25-1.49,2.07-1.83,2.06-4.28,3.46-6.36,3.46-1.88,0-4-1.05-5.74-2.67l.01.01ZM48.79,56.31c1.31-1.7,2.22-2.97,2.71-4.48.64-.35,1.16-.73,1.61-1.13.34,1.85,1.12,3.32,1.77,4.57.45.86.88,1.67,1.07,2.44.54,2.11-.05,4.6-.97,5.68-1.6-.82-3.61-1.54-6.05-2.18l-.15-4.9h.01Z"/>
  </g>
</svg>