<?xml version="1.0" encoding="UTF-8"?><svg id="n" xmlns="http://www.w3.org/2000/svg" width="48" height="32" viewBox="0 0 48 32"><defs><style>.q{fill:#1434cb;}</style></defs><path id="o" class="q" d="M19.187,9.769l-5.237,12.498h-3.416l-2.577-9.97c-.047-.475-.338-.891-.768-1.098-1.015-.485-2.085-.842-3.188-1.063l.077-.367h5.495c.743-.002,1.376.539,1.49,1.273l1.361,7.23,3.374-8.503h3.39,0ZM32.574,18.183c.014-3.298-4.56-3.48-4.528-4.952.01-.449.436-.926,1.374-1.047,1.093-.103,2.194.09,3.186.559l.567-2.649c-.967-.363-1.991-.551-3.023-.554-3.194,0-5.442,1.698-5.461,4.13-.021,1.796,1.604,2.802,2.829,3.401,1.26.612,1.682,1.005,1.678,1.552-.01.839-1.005,1.209-1.936,1.223-1.155.024-2.297-.247-3.318-.788l-.586,2.737c1.145.445,2.364.67,3.593.664,3.395,0,5.616-1.677,5.627-4.274M41.011,22.262h2.989l-2.61-12.494h-2.759c-.602-.005-1.147.358-1.374.916l-4.85,11.577h3.394l.674-1.866h4.144l.391,1.866h0ZM37.403,17.836l1.701-4.691.98,4.691h-2.681ZM23.805,9.769l-2.672,12.498h-3.232l2.673-12.498s3.231,0,3.231,0Z"/></svg>