<?xml version="1.0" encoding="UTF-8"?>
<svg id="Illustration" xmlns="http://www.w3.org/2000/svg" width="80" height="80" version="1.1" viewBox="0 0 80 80">
  <!-- Generator: Adobe Illustrator 29.1.0, SVG Export Plug-In . SVG Version: 2.1.0 Build 142)  -->
  <defs>
    <style>
      .st0 {
        fill: #336ecc;
      }

      .st1 {
        fill: #374e80;
      }
    </style>
  </defs>
  <g>
    <path class="st1" d="M41.54,74.01c-.02.12-.12.22-.25.22h-9.13c-.3-.77-1.05-1.31-1.92-1.31s-1.62.54-1.92,1.31h-9.07c-.13,0-.23-.09-.25-.25l-2.93-17.3c3.78,3.16,8.64,5.07,13.94,5.07,3.96,0,7.83-1.07,11.2-3.1l-.77-1.29c-3.14,1.89-6.74,2.89-10.43,2.89-11.17,0-20.25-9.08-20.25-20.25s9.08-20.25,20.25-20.25c3.69,0,7.31,1,10.46,2.9l.78-1.28c-3.38-2.04-7.26-3.12-11.23-3.12-5.3,0-10.16,1.91-13.94,5.07l2.94-17.35c.02-.12.12-.22.25-.22h7.44v-1.5h-7.44c-.88,0-1.63.66-1.73,1.5l-3.25,19.21h.04c-3.75,3.92-6.06,9.21-6.06,15.04s2.3,11.11,6.04,15.02h-.03l3.25,19.18c.11.88.85,1.54,1.74,1.54h9.68c.41,0,.75-.34.75-.75,0-.31.25-.56.56-.56s.56.25.56.56c0,.41.34.75.75.75h9.74c.88,0,1.63-.66,1.74-1.52l.75-5.3-1.48-.21-.76,5.32-.02-.02Z"/>
    <path class="st1" d="M41.54,5.99l1.58,11.14,1.48-.21-1.58-11.12c-.11-.88-.85-1.54-1.74-1.54h-8.58v1.5h8.58c.13,0,.23.09.25.24l.01-.01Z"/>
    <path class="st1" d="M28.52,66.29c0,.94.77,1.71,1.71,1.71s1.71-.77,1.71-1.71-.77-1.71-1.71-1.71-1.71.77-1.71,1.71ZM31.15,66.29c0,.5-.41.91-.91.91s-.91-.41-.91-.91.41-.91.91-.91.91.41.91.91Z"/>
    <path class="st1" d="M19.21,32.53l-.42.68,11.23,7.02c.06.04.14.06.21.06.08,0,.16-.02.22-.07l8.35-5.66-.45-.66-8.13,5.52-11.01-6.88v-.01Z"/>
    <path class="st1" d="M40.76,26.96c-3.02-2.49-6.83-3.86-10.75-3.86-9.32,0-16.9,7.58-16.9,16.9s7.58,16.9,16.9,16.9c4.07,0,8-1.47,11.07-4.13l-.52-.6c-2.92,2.54-6.67,3.94-10.55,3.94-8.88,0-16.1-7.22-16.1-16.1s7.22-16.1,16.1-16.1c3.73,0,7.37,1.3,10.24,3.68l.51-.62v-.01Z"/>
    <path class="st1" d="M75.75,36.96v-15.96c0-.96-.79-1.75-1.75-1.75h-29.05c-.96,0-1.75.79-1.75,1.75v40c0,.96.79,1.75,1.75,1.75h29.05c.96,0,1.75-.79,1.75-1.75v-16.61h-1.5v16.61c0,.14-.11.25-.25.25h-29.05c-.14,0-.25-.11-.25-.25V21c0-.14.11-.25.25-.25h29.05c.14,0,.25.11.25.25v15.96h1.5Z"/>
    <path class="st1" d="M59.62,25.67v-.8h-1.64c-.31,0-.58.23-.61.52l-.72,4.14c-.82.88-1.33,2.04-1.33,3.33s.51,2.45,1.33,3.33l.71,4.12c.04.31.3.54.62.54h4.87c.31,0,.58-.23.62-.53l.6-4.13c.82-.88,1.33-2.04,1.33-3.33s-.51-2.45-1.33-3.33l-.6-4.12c-.04-.31-.3-.54-.62-.54h-1.89v.8h1.74l.44,3.07c-.8-.52-1.75-.83-2.78-.83s-1.96.3-2.75.81l.53-3.05h1.49-.01ZM62.69,40.05h-4.56l-.53-3.05c.79.51,1.74.81,2.75.81s1.98-.31,2.78-.83l-.44,3.06v.01ZM64.59,32.87c0,2.29-1.9,4.15-4.24,4.15s-4.24-1.86-4.24-4.15,1.9-4.15,4.24-4.15,4.24,1.86,4.24,4.15Z"/>
    <path class="st1" d="M60.4,33.24c.08,0,.15-.02.22-.07l1.84-1.23-.44-.67-1.63,1.09-2.26-1.39-.42.68,2.48,1.52c.06.04.14.06.21.06v.01Z"/>
    <rect class="st1" x="50.14" y="55.6" width="19.86" height=".8"/>
  </g>
  <g>
    <rect class="st0" x="56.14" y="45.25" width="7.86" height="1.5"/>
    <rect class="st0" x="56.14" y="48.25" width="7.86" height="1.5"/>
    <rect class="st0" x="26" y="45.25" width="7.86" height="1.5"/>
    <rect class="st0" x="26" y="48.25" width="7.86" height="1.5"/>
  </g>
</svg>